PathFileType	4	(X/Y/Z)	Patient4_TMGait_0pt7_02_left_45.trc.trc
DataRate	CameraRate	NumFrames	NumMarkers	Units	OrigDataRate	OrigDataStartFrame	OrigNumFrames
88.050314465409	88.050314465409	4	33	mm	88.050314465409	106	       141
Frame#	Time	Sacral			L.Shoulder			Chest			R.Shoulder			Neck			R.ASIS			L.ASIS			R.Thigh.Superior			R.Thigh.Lateral			R.Thigh.Inferior			R.Patella			L.Thigh.Superior			L.Thigh.Lateral			L.Thigh.Inferior			L.Patella			L.Shank.Superior			L.Shank.Lateral			L.Shank.Inferior			R.Shank.Superior			R.Shank.Lateral			R.Shank.Inferior			R.Heel			R.Midfoot.Superior			R.Midfoot.Lateral			R.Toe			L.Heel			L.Midfoot.Lateral			L.Midfoot.Superior			L.Toe			L.Elbow			L.Wrist			R.Elbow			R.Wrist			
		X1	Y1	Z1	X2	Y2	Z2	X3	Y3	Z3	X4	Y4	Z4	X5	Y5	Z5	X6	Y6	Z6	X7	Y7	Z7	X8	Y8	Z8	X9	Y9	Z9	X10	Y10	Z10	X11	Y11	Z11	X12	Y12	Z12	X13	Y13	Z13	X14	Y14	Z14	X15	Y15	Z15	X16	Y16	Z16	X17	Y17	Z17	X18	Y18	Z18	X19	Y19	Z19	X20	Y20	Z20	X21	Y21	Z21	X22	Y22	Z22	X23	Y23	Z23	X24	Y24	Z24	X25	Y25	Z25	X26	Y26	Z26	X27	Y27	Z27	X28	Y28	Z28	X29	Y29	Z29	X30	Y30	Z30	X31	Y31	Z31	X32	Y32	Z32	X33	Y33	Z33	

106	52.702500000000	757.861690611865	1021.684284998540	517.524824094295	958.505722910182	1421.940120082795	302.528555073694	1071.497748887233	1349.913157493419	457.414889776966	1013.169505651316	1441.680704199671	633.268234457000	979.806970998435	1490.300525841895	453.225703605752	985.573122220948	942.077771973047	623.721350171875	957.991808739581	959.901334611838	350.771818919881	1012.905580064509	737.736242180458	595.865386076906	924.818391325890	634.733870528547	654.554535672560	996.406355586588	578.175877267892	571.804073217070	989.493708731915	490.985743470057	574.922741983856	1058.958009214563	818.514779830484	396.642926690753	1053.496031012700	692.219081326562	307.736921130983	1163.947485690610	648.913690124545	380.303864629406	1194.641379131828	557.633855433853	369.549482166761	1129.108503856530	483.530806153317	357.757578979619	988.625546528519	443.821355088872	303.280244516573	971.955298239718	314.882618672282	355.654404517772	958.463007360519	404.489363792666	581.284623743023	884.570911935907	303.936084975216	644.539199690746	917.788916442615	207.824035452440	577.346745087742	771.571248005397	47.453647074759	555.587757055304	947.607694602700	97.936193725613	579.081682457564	860.222544694566	39.145437104064	622.640803829970	1067.338657761246	39.355588217326	598.001646145184	779.460432111219	250.552506873935	385.269234135442	839.766592418791	209.060925798862	304.652532634835	943.902947178420	214.660772669022	330.117750861976	1021.932395217139	103.874952652402	298.130375088501	869.737017567634	1069.839307689585	230.054364170808	891.028950471263	809.132432239557	230.298661873047	1001.961406239226	1101.901860154535	778.350661052438	1200.548533147124	941.815919796566	731.326327850689	
107	52.713857142857	756.506883853674	1021.383761393308	517.309468755744	957.160967321609	1421.368956472215	302.523460257244	1070.140158691581	1349.500323977659	457.448189201330	1011.854443074968	1441.436813958663	633.311034634652	978.432155272042	1489.948464035594	453.286735240072	984.007363296159	941.610459480314	623.785129333266	956.640471692415	959.615616565040	350.669716322383	1009.580377845772	736.734374865388	594.976398893924	921.148793870242	634.264523510687	654.264751859297	991.891286713708	577.110097030178	571.281983419495	984.201292951954	490.044108592679	574.398481000420	1058.397139432887	820.604618693660	396.737854735684	1055.067242920181	694.702228250719	307.060456902768	1166.117264603439	653.261889836491	379.452405152541	1198.782632983559	562.894210733643	368.709487842582	1135.761211424146	486.998572838043	357.167980385767	996.924844149498	441.990578254086	302.573893503546	985.102252037454	312.462456395447	355.235639890079	952.625672263780	403.687674060297	580.801380090233	878.337546655259	303.589723062714	644.296238400471	910.610813304521	207.309787066151	577.048691516287	763.569508631631	47.320015600569	555.608399289848	939.512276597711	97.852079514937	579.055280059446	852.169624488273	39.054548206688	622.701296042877	1059.294727363227	39.341718645419	598.031386173560	795.103146150423	240.779454569692	384.671288343829	857.150880538500	201.453598085552	304.269803125954	961.010204152470	211.215978277462	329.888512167618	1043.416804065039	103.350694334898	298.383065776608	863.141925221105	1070.724352811197	230.303767332301	869.325386161706	809.382489743683	231.869278966514	1011.011630283116	1101.470394246924	777.230870448541	1220.454318904432	959.148698809702	724.007393027743	
108	52.725214285714	755.232646851798	1021.071102268252	516.918688777023	955.873526082560	1420.838574872224	302.452442009363	1068.836635573353	1349.084016034626	457.393076817810	1010.593798882366	1441.145450688987	633.285561459177	977.133224316554	1489.582674316637	453.301321127487	982.474571032980	941.158138074512	623.774098595264	955.424672809444	959.241479421610	350.483160922247	1006.217421444737	735.711091053356	594.091941715008	917.237221474755	633.831084572635	653.920539528363	987.103149593925	576.025746707510	570.764763207302	978.585838642368	489.149943487789	573.834620612797	1057.624606573820	822.202853054905	396.697004458848	1056.078248941429	696.711056563302	306.239828936537	1167.590970762892	656.859605585018	378.394806842655	1202.047848357066	567.490193448451	367.663464815580	1141.709556628268	489.908501527848	356.400001624128	1004.937633782824	439.275170842031	301.590826468008	998.311489042317	309.334120090515	354.586789130728	946.518648468789	402.933280439588	580.287566592126	871.918735449823	303.254059938883	644.056676965262	903.307188802716	206.836888154512	576.753044462835	755.556728133795	47.168942464097	555.637972503787	931.402800631302	97.768202457985	579.023041084358	844.114925636373	38.957675716112	622.782605702694	1051.237514078818	39.335824194408	598.051512323807	811.352561122004	229.910933601487	383.734248460986	875.197110998041	192.928882192621	303.635691864946	978.523683319838	207.130368548803	329.491424228510	1065.460204351751	102.591984480400	298.627933582137	855.836550510213	1072.049223944089	230.157053816243	849.193811684089	811.045633984495	233.404987568904	1020.293771130261	1101.319148484880	775.744118045879	1238.968269488196	977.759230045098	716.287895265685	
109	52.736571428571	754.045858953639	1020.765408583019	516.365965675329	954.641646352398	1420.370883026346	302.317843320951	1067.593065587979	1348.674224839886	457.239411256502	1009.412805439390	1440.812295276264	633.183780492433	975.920356859792	1489.215934032957	453.268975284678	980.988096134271	940.734522315915	623.666442899604	954.341163911762	958.785787800939	350.188638834451	1002.821482918891	734.677979016084	593.248574520425	913.074884351420	633.449946359486	653.532919932612	982.045979127904	574.941691380237	570.274819426294	972.658135718579	488.318623162200	573.249958224231	1056.638303325462	823.295938178824	396.523604386928	1056.519562957908	698.184210120492	305.306901337388	1168.340002568370	659.592636923620	377.182409302488	1204.376971092290	571.303993131279	366.467844657874	1146.870288500716	492.192098876181	355.489246549523	1012.637751587912	435.659003082577	300.344612815974	1011.538187960066	305.524881120590	353.709992692683	940.149747585437	402.244900682620	579.764656175068	865.307613319764	302.946224438205	643.827562023051	895.883311623373	206.418077384640	576.469598959701	747.530113751102	47.014496217322	555.676442465976	923.288024766243	97.689576458007	578.988387383064	836.058728332000	38.862324061391	622.882071886203	1043.169194414994	39.340675525254	598.063542729289	828.229211547751	218.006412120036	382.450162919561	893.907245298014	183.589262677797	302.732935978179	996.394403610415	202.486006995259	328.910808143334	1087.976014978630	101.746088070852	298.826347489328	847.961011763648	1073.827054373891	229.665886313952	830.694315375016	813.768562811829	234.910549477925	1029.791194953510	1101.462296857015	773.875022906287	1255.949453287061	997.396598229357	708.274393522857	
